<svg width="562" height="586" viewBox="0 0 562 586" fill="none" xmlns="http://www.w3.org/2000/svg">
<path d="M0 95.5C0 42.7568 43.0062 0 95.7493 0C148.769 0 192 42.9807 192 96V191H95.5C42.7568 191 0 148.243 0 95.5Z" fill="#BCC5F2"/>
<path d="M377 0L562 0V184C501.662 184 471.493 184 448.192 173.625C421.101 161.564 399.436 139.899 387.375 112.808C377 89.5068 377 59.6712 377 0Z" fill="#D9FB99"/>
<path d="M192 198H377V382H364.7C306.205 382 276.958 382 254.384 371.16C231.844 360.336 213.664 342.156 202.84 319.616C192 297.042 192 267.795 192 209.3V198Z" fill="#BCC5F2"/>
<path d="M0 205H89C139.81 205 181 246.19 181 297V297C181 347.81 139.81 389 89 389H0L0 205Z" fill="#D9FB99"/>
<path d="M386 410H562V586H558.7C500.205 586 470.958 586 448.384 575.16C425.844 564.336 407.664 546.156 396.84 523.616C386 501.042 386 471.795 386 413.3V410Z" fill="#0732EF"/>
<path d="M193 586L193 494C193 443.19 234.19 402 285 402C335.81 402 377 443.19 377 494V586H193Z" fill="#D9FB99"/>
<path d="M170 586H0L0 402V402C27.8726 402 41.8089 402 53.4509 403.978C112.106 413.944 158.056 459.894 168.022 518.549C170 530.191 170 544.127 170 572V586Z" fill="#D9FB99"/>
</svg>
