<svg width="37" height="50" viewBox="0 0 37 50" fill="none" xmlns="http://www.w3.org/2000/svg">
<rect x="36.6517" y="44.5443" width="11.0437" height="49.56" rx="5.52186" transform="rotate(154 36.6517 44.5443)" fill="#0732EF"/>
<path d="M0 24.5C0 21.4624 2.46243 19 5.5 19V19C8.53757 19 11 21.4624 11 24.5V25C11 28.3137 8.31371 31 5 31H0V24.5Z" fill="#0732EF"/>
<path d="M3 40.5C3 36.3579 6.35786 33 10.5 33V33C14.6421 33 18 36.3579 18 40.5V41.5C18 45.6421 14.6421 49 10.5 49V49C6.35786 49 3 45.6421 3 41.5V40.5Z" fill="#0732EF"/>
</svg>
