<svg width="100" height="100" xmlns="http://www.w3.org/2000/svg" viewBox="0 0 200 200">
  <path d="M112.498 24.475a3.975 3.975 0 0 0-3.975-3.975H91.477a3.975 3.975 0 0 0-3.975 3.975V60.23c0 3.541-4.282 5.315-6.786 2.811l-25.15-25.15a3.975 3.975 0 0 0-5.621 0L37.892 49.944a3.976 3.976 0 0 0 0 5.622l25.151 25.151c2.504 2.504.731 6.786-2.811 6.786H24.475a3.975 3.975 0 0 0-3.975 3.975v17.046a3.975 3.975 0 0 0 3.975 3.975h36.021c3.541 0 5.315 4.282 2.811 6.786L37.892 144.7a3.975 3.975 0 0 0 0 5.621l12.053 12.053a3.974 3.974 0 0 0 5.622 0l25.15-25.15c2.504-2.504 6.786-.731 6.786 2.811v35.491a3.975 3.975 0 0 0 3.975 3.975h17.046a3.975 3.975 0 0 0 3.975-3.975v-35.757c0-3.541 4.282-5.315 6.786-2.811l25.417 25.417a3.975 3.975 0 0 0 5.621 0l12.053-12.053a3.973 3.973 0 0 0 0-5.621l-25.415-25.416c-2.504-2.504-.731-6.786 2.811-6.786h35.755a3.975 3.975 0 0 0 3.975-3.975V91.477a3.975 3.975 0 0 0-3.975-3.975h-35.491c-3.541 0-5.315-4.282-2.811-6.786l25.152-25.152a3.973 3.973 0 0 0 0-5.621L150.322 37.89a3.976 3.976 0 0 0-5.622 0l-25.416 25.417c-2.504 2.504-6.786.731-6.786-2.811V24.475z" clip-rule="evenodd" fill-rule="evenodd" data-color="1" fill="#D9FB99"></path>
</svg>
